HIERARCHY
ROOT Hips
{
	OFFSET 0.000000 0.000000 0.000000 
	CHANNELS 6 Xposition Yposition Zposition Zrotation Yrotation Xrotation
	JOINT LeftUpLeg
	{
		OFFSET 1.363060 -1.794630 0.839290 
		CHANNELS 3 Zrotation Yrotation Xrotation
		JOINT LeftLeg
		{
			OFFSET 2.448110 -6.726130 0.000000 
			CHANNELS 3 Zrotation Yrotation Xrotation
			JOINT LeftFoot
			{
				OFFSET 2.562200 -7.039590 0.000000 
				CHANNELS 3 Zrotation Yrotation Xrotation
				JOINT LeftToeBase
				{
					OFFSET 0.157640 -0.433110 2.322550 
					CHANNELS 3 Zrotation Yrotation Xrotation
					End Site
					{
						OFFSET 0.000000 0.000000 0.000000 
					}
				}
			}
		}
	}
	JOINT RightUpLeg
	{
		OFFSET -1.305520 -1.794630 0.839290 
		CHANNELS 3 Zrotation Yrotation Xrotation
		JOINT RightLeg
		{
			OFFSET -2.542530 -6.985550 0.000000 
			CHANNELS 3 Zrotation Yrotation Xrotation
			JOINT RightFoot
			{
				OFFSET -2.568260 -7.056230 0.000000 
				CHANNELS 3 Zrotation Yrotation Xrotation
				JOINT RightToeBase
				{
					OFFSET -0.164730 -0.452590 2.363150 
					CHANNELS 3 Zrotation Yrotation Xrotation
					End Site
					{
						OFFSET 0.000000 0.000000 0.000000 
					}
				}
			}
		}
	}
	JOINT Spine
	{
		OFFSET 0.028270 2.035590 -0.193380 
		CHANNELS 3 Zrotation Yrotation Xrotation
		JOINT Spine1
		{
			OFFSET 0.056720 2.048850 -0.042750 
			CHANNELS 3 Zrotation Yrotation Xrotation
			JOINT Neck1
			{
				OFFSET -0.054170 1.746240 0.172020 
				CHANNELS 3 Zrotation Yrotation Xrotation
				JOINT Head
				{
					OFFSET 0.104070 1.761360 -0.123970 
					CHANNELS 3 Zrotation Yrotation Xrotation
					End Site
					{
						OFFSET 0.000000 0.000000 0.000000 
					}
				}
			}
			JOINT LeftArm
			{
				OFFSET 3.362410 1.200890 -0.311210 
				CHANNELS 3 Zrotation Yrotation Xrotation
				JOINT LeftForeArm
				{
					OFFSET 4.983000 -0.000000 -0.000000 
					CHANNELS 3 Zrotation Yrotation Xrotation
					JOINT LeftHand
					{
						OFFSET 3.483560 -0.000000 -0.000000 
						CHANNELS 3 Zrotation Yrotation Xrotation
						JOINT LeftHandIndex1
						{
							OFFSET 0.715260 -0.000000 -0.000000 
							CHANNELS 3 Zrotation Yrotation Xrotation
							End Site
							{
								OFFSET 0.000000 0.000000 0.000000 
							}
						}
					}
				}
			}
			JOINT RightArm
			{
				OFFSET -3.136600 1.374050 -0.404650 
				CHANNELS 3 Zrotation Yrotation Xrotation
				JOINT RightForeArm
				{
					OFFSET -5.241900 -0.000000 -0.000000 
					CHANNELS 3 Zrotation Yrotation Xrotation
					JOINT RightHand
					{
						OFFSET -3.444170 -0.000000 -0.000000 
						CHANNELS 3 Zrotation Yrotation Xrotation
						JOINT RightHandIndex1
						{
							OFFSET -0.622530 -0.000000 -0.000000 
							CHANNELS 3 Zrotation Yrotation Xrotation
							End Site
							{
								OFFSET 0.000000 0.000000 0.000000 
							}
						}
					}
				}
			}
		}
	}
}
MOTION
Frames: 13
Frame Time: 0.041667
-0.430578 19.423965 12.751937 -0.396700 6.649900 -2.221842 -13.563061 -3.560777 -18.391076 1.420910 10.654780 30.721957 1.789858 -4.651882 16.608154 4.265100 -12.505000 -37.542900 13.223292 3.236731 -19.311939 -3.918996 -12.690523 37.106493 -0.170598 -2.143826 7.716584 -0.408500 -4.103200 11.367100 0.080176 0.998976 -0.632776 3.286908 0.115808 -4.351244 5.128132 -1.545785 16.945407 0.837700 -0.396400 8.825300 -90.350197 26.625580 13.314137 39.200646 -52.533301 -19.681383 -0.657300 1.112715 -14.825723 -7.125000 0.000000 0.000000 78.739777 -15.214065 28.947983 -29.861901 48.173143 -12.863498 0.081833 -0.849200 -17.717687 7.125000 0.000000 0.000000 
-0.443964 19.106762 13.061129 -0.184359 6.950159 -2.731269 -14.566202 -2.120719 -19.434104 1.499320 10.743225 30.580402 0.982144 0.894909 18.064005 3.488200 -11.446200 -33.799900 13.110204 4.802756 -19.566106 -3.797012 -12.439392 36.344528 -0.172355 -3.091328 10.872871 -0.739300 -5.492800 15.319800 0.042496 0.815231 -0.494821 3.504615 0.020615 -4.101818 5.098403 -1.405174 16.893860 0.835000 -0.334100 8.731200 -90.085891 26.880927 14.144697 39.181198 -52.563349 -19.644665 -0.651080 1.111922 -14.587461 -7.125000 0.000000 0.000000 78.373469 -14.866347 30.005109 -29.920276 48.217310 -12.875194 0.069364 -0.838011 -17.302538 7.125000 0.000000 0.000000 
-0.452279 18.752950 13.378536 -0.398957 7.445985 -3.403802 -14.977001 -1.072636 -20.216859 1.632034 10.899872 30.909401 0.881896 2.829589 20.554468 3.316200 -11.190200 -32.924100 13.261922 6.237143 -19.673382 -3.757256 -12.298305 35.945465 -0.286183 -3.871557 14.167503 -1.368200 -7.402900 20.914500 0.092003 0.588925 -0.307332 3.570505 -0.102759 -3.713195 4.877193 -1.210320 16.727135 0.754300 -0.264300 8.577100 -89.765935 26.866267 15.184028 39.216073 -52.615562 -19.635158 -0.642520 1.110718 -14.473822 -7.125000 0.000000 0.000000 77.995083 -14.453596 31.079687 -30.045487 48.315358 -12.936141 0.054490 -0.812257 -17.245255 7.125000 0.000000 0.000000 
-0.458668 18.363442 13.697058 -0.843401 8.289770 -4.361869 -15.075406 -0.139839 -21.259264 2.095384 11.517932 32.859650 0.898946 3.614810 22.046327 3.049300 -10.774500 -31.522900 13.489407 7.279904 -19.640047 -3.804720 -12.291516 36.059616 -0.646704 -3.534933 17.431884 -1.805900 -8.449500 24.087900 0.198365 0.214198 -0.074006 3.596688 -0.302747 -3.304562 4.569161 -0.953674 16.488404 0.632000 -0.168800 8.388800 -89.388574 27.052034 16.364503 39.440596 -52.775716 -19.757234 -0.634884 1.108978 -14.566177 -7.125000 0.000000 0.000000 77.632781 -13.996892 32.113156 -30.282321 48.495048 -13.070373 0.058355 -0.792333 -17.379360 7.125000 0.000000 0.000000 
-0.472966 17.862386 14.006758 -1.246649 9.433197 -5.478652 -15.226681 0.968583 -21.258456 2.649352 12.313583 35.829556 0.758335 0.019726 13.220615 4.294500 -12.542300 -37.678500 13.356135 8.318588 -19.175575 -4.020622 -12.615592 37.323018 -0.617709 -1.517738 13.684187 -0.645900 -5.141400 14.312200 0.311472 -0.272238 0.104737 3.712492 -0.553494 -3.144207 4.365899 -0.704773 16.122707 0.555300 -0.074000 8.130500 -88.997814 27.210394 17.574947 39.526681 -52.859766 -19.777002 -0.623652 1.104937 -14.559827 -7.125000 0.000000 0.000000 77.283503 -13.720907 33.006698 -30.853473 48.906156 -13.418354 0.086348 -0.787482 -17.439017 7.125000 0.000000 0.000000 
-0.500245 17.392259 14.265855 -1.633791 10.809395 -6.701424 -15.314279 1.371263 -20.406562 3.624443 13.453283 39.850332 0.471333 -0.127015 4.354130 4.793200 -13.147100 -39.921500 13.271715 8.811029 -17.961465 -4.513780 -13.340126 39.815859 -0.596846 0.894777 4.792556 -0.027100 -1.063300 2.923000 0.419989 -0.720812 0.138351 3.858952 -0.775055 -3.500820 4.812032 -0.594607 15.496914 0.776800 -0.024800 7.708700 -88.545182 27.256500 18.909517 39.245193 -52.745035 -19.523991 -0.597473 1.099910 -14.184257 -7.125000 0.000000 0.000000 77.096404 -13.834555 33.479275 -31.709314 49.504833 -13.962837 0.122373 -0.780981 -17.382622 7.125000 0.000000 0.000000 
-0.546183 16.906718 14.494022 -1.710317 12.216720 -8.218924 -15.013690 0.550349 -20.056782 4.752331 14.589332 44.171955 0.678193 -0.805613 -2.741186 2.104800 -9.081000 -26.049100 13.233884 8.792580 -16.536354 -5.403388 -14.398386 43.588600 -0.969221 2.630288 -3.754452 -0.035300 1.213300 -3.335900 0.495491 -1.034037 0.104305 4.209825 -0.914727 -4.305312 4.591323 -0.589379 15.885052 0.699200 -0.030700 7.783400 -88.315182 26.852049 19.861602 38.249782 -52.219725 -18.759054 -0.545287 1.100169 -13.052398 -7.125000 0.000000 0.000000 77.342203 -14.103952 33.201895 -32.478526 50.022129 -14.467737 0.157718 -0.778655 -16.845295 7.125000 0.000000 0.000000 
-0.603377 16.593672 14.686494 -2.227085 12.871368 -8.604011 -14.287969 1.155190 -21.003757 5.872943 15.523461 48.048090 1.211519 -2.042383 -7.934664 1.481700 -7.690800 -21.778700 14.074333 7.753088 -18.449136 -6.495056 -15.337419 47.731074 -1.023880 2.574469 -5.971671 -0.000600 0.162800 -0.447400 0.636506 -0.908044 -0.190823 4.330947 -0.821142 -4.968798 3.448681 -0.653175 16.811753 0.150700 -0.080600 8.143900 -88.119695 25.251660 20.415500 35.911307 -50.863684 -17.086741 -0.472525 1.084331 -11.387604 -7.125000 0.000000 0.000000 78.289543 -14.312903 31.899609 -33.110645 50.437793 -14.899109 0.196803 -0.793962 -15.464625 7.125000 0.000000 0.000000 
-0.637247 16.426856 14.838403 -4.425040 12.584820 -7.378815 -11.508830 1.643296 -24.576211 6.843247 16.171674 51.001965 1.864311 -4.714201 -8.047266 0.819200 -5.775400 -16.134100 16.924351 8.822531 -22.093043 -7.617566 -15.999835 51.651536 -0.768808 1.105782 -7.518339 -0.040800 -1.303500 3.584400 1.124516 -0.590827 -0.591277 3.938662 -0.667059 -4.796644 3.722437 -0.637404 18.146678 0.360500 -0.049800 8.908100 -89.372548 21.978135 18.406649 32.038792 -48.312559 -14.462784 -0.375775 1.077544 -7.611643 -7.125000 0.000000 0.000000 79.035440 -12.714579 30.809616 -31.525967 49.363426 -13.880158 0.187185 -0.822942 -13.946341 7.125000 0.000000 0.000000 
-0.670306 16.272209 14.999845 -3.619284 13.528354 -8.782712 -12.104291 1.611356 -23.235083 7.479715 16.594042 53.064582 2.189773 -5.720584 -9.757691 0.788200 -5.667500 -15.822700 16.166646 7.240038 -21.467434 -8.353818 -16.601838 54.254962 -1.195072 2.674484 -9.302490 -0.237200 -3.134300 8.652900 1.125267 -0.563134 -0.260910 4.763397 -0.672506 -4.945655 3.134105 -0.662600 18.200487 0.087100 -0.095400 8.949200 -91.503249 19.663305 15.190018 29.195476 -46.214827 -12.625512 -0.316122 1.073904 -2.789510 -7.125000 0.000000 0.000000 79.787336 -11.352092 29.025088 -29.463865 47.870424 -12.608580 0.151401 -0.842368 -10.767340 7.125000 0.000000 0.000000 
-0.662903 16.229415 15.189984 -0.943436 14.753807 -9.021402 -14.935591 1.330701 -21.907011 7.765987 16.804660 54.110935 2.387378 -6.207848 -11.400025 0.734100 -5.473900 -15.265400 13.071403 5.992155 -20.549144 -8.763577 -16.949910 55.644999 -1.546627 3.757263 -11.143002 -0.218100 -3.006500 8.296800 0.746465 -0.710704 -0.090472 5.882627 -0.758037 -4.712847 3.394522 -0.813179 18.779172 0.206200 -0.137800 9.218000 -93.621371 18.649254 12.513011 27.362289 -44.782551 -11.488741 -0.318956 1.073444 0.623625 -7.125000 0.000000 0.000000 80.696702 -10.662611 27.065441 -27.978493 46.740552 -11.729358 0.093243 -0.856896 -7.997491 7.125000 0.000000 0.000000 
-0.673754 16.211567 15.356395 -1.959471 16.119339 -8.986536 -13.758021 0.842172 -21.600639 7.784800 16.771098 53.988958 2.711767 -7.567400 -11.491273 0.543500 -4.723300 -13.121000 14.080403 4.852566 -20.590951 -8.818919 -17.013061 55.825309 -1.665985 3.916522 -12.260723 -0.332800 -3.707500 10.255200 0.893397 -1.137878 -0.394347 5.684362 -0.956485 -4.959108 3.453655 -0.903637 19.195595 0.192400 -0.142500 9.331400 -95.147674 18.208489 10.481082 26.338693 -43.929794 -10.887615 -0.357170 1.067259 -0.547415 -7.125000 0.000000 0.000000 81.815888 -10.674181 25.721451 -27.406882 46.302956 -11.390004 0.058235 -0.887140 -7.084446 7.125000 0.000000 0.000000 
-0.688255 16.242902 15.510839 -1.753623 17.830692 -8.172542 -13.895107 0.033163 -21.346072 7.533525 16.588755 53.107602 2.901574 -8.526450 -11.269983 0.414700 -4.133700 -11.453100 13.830884 4.277076 -20.637415 -8.676591 -16.938759 55.358921 -1.622014 3.490700 -12.806618 -0.541000 -4.712700 13.090900 0.765951 -1.670758 -0.724834 5.573819 -1.198862 -5.040434 3.862368 -1.177911 19.652180 0.322400 -0.210700 9.495900 -95.368374 18.409927 11.250977 26.066362 -43.739238 -10.718247 -0.407047 1.043901 -4.840338 -7.125000 0.000000 0.000000 82.903068 -10.811138 25.073944 -27.191933 46.146751 -11.243075 0.030293 -0.925787 -7.682616 7.125000 0.000000 0.000000 
